<svg width="1200" height="420" viewBox="0 0 1200 420" fill="none" xmlns="http://www.w3.org/2000/svg">
  <rect width="1200" height="420" fill="#1E293B"/>
  
  <!-- Isometric Blocks Icon -->
  <g transform="translate(100, 70)">
    <!-- <path d="M150 50 L250 100 L150 150 L50 100 Z" fill="#38BDF8"/> -->
    <path d="M50 100 L150 150 V250 L50 200 Z" fill="#0284C7"/>
    <path d="M250 100 L250 200 L150 250 V150 Z" fill="#0EA5E9"/>
    

    <g transform="translate(0, 50)">
      <!-- Floating blocks above (Traffic Light) -->
      <!-- Green (Bottom) -->
      <!-- <path d="M150 20 L210 50 L150 80 L90 50 Z" fill="#EF4444" opacity="0.9"/> -->
      <path d="M150 20 L210 50 L150 80 L90 50 Z" fill="#22C55E" opacity="0.9"/>
      <!-- Yellow (Middle) -->
      <path d="M150 -5 L210 25 L150 55 L90 25 Z" fill="#EAB308" opacity="0.9"/>
      <!-- Red (Top) -->
      <!-- <path d="M150 -30 L210 0 L150 30 L90 0 Z" fill="#22C55E" opacity="0.9"/> -->
      <path d="M150 -30 L210 0 L150 30 L90 0 Z" fill="#EF4444" opacity="0.9"/>
    </g>
  </g>
  
  <!-- Text -->
  <text x="380" y="220" font-family="monospace" font-weight="bold" font-size="85" fill="#F8FAFC">
    signalbox<tspan fill="#38BDF8">_</tspan>
  </text>
  <text x="380" y="270" font-family="monospace" font-weight="bold" font-size="23" fill="#94A3B8">
    //RUN &amp; MONITOR SCRIPTS
  </text>
  <!-- <text x="520" y="260" font-family="monospace" font-weight="bold" font-size="23" fill="#94A3B8">
    //RUN &amp; MONITOR SCRIPTS
  </text> -->
</svg>